<svg t="1681638138065" class="icon" viewBox="0 0 1024 1024" version="1.1" xmlns="http://www.w3.org/2000/svg" p-id="4385" width="150" height="150"><path d="M917.504 908.288c-11.264 0.4096-22.3232-3.6864-30.5152-11.6736l-237.568-239.8208c-7.9872-7.7824-12.4928-18.6368-12.4928-29.696 0-11.264 4.5056-21.9136 12.4928-29.696 7.5776-7.9872 18.2272-12.6976 29.4912-12.6976 11.0592 0 21.7088 4.5056 29.4912 12.6976l237.3632 240.0256c7.9872 7.9872 12.4928 18.6368 12.6976 30.1056 0.6144 10.8544-3.2768 21.504-10.8544 29.4912-7.9872 7.5776-18.8416 11.6736-30.1056 11.264z m0 0" fill="#EA5533" p-id="4386"></path><path d="M678.7072 598.2208c7.5776 0 14.7456 3.072 20.0704 8.6016l237.3632 240.0256c11.0592 10.8544 11.8784 28.4672 1.8432 40.3456-5.5296 5.3248-13.1072 7.9872-20.6848 7.7824-7.7824 0.4096-15.36-2.4576-21.0944-7.7824L659.0464 647.168c-8.192-8.192-10.6496-20.2752-6.3488-30.9248 4.3008-10.6496 14.5408-17.8176 26.0096-18.0224" fill="#EA5533" p-id="4387"></path><path d="M611.1232 482.0992c-8.8064 0-16.7936 4.7104-21.2992 12.288l-61.8496 131.6864-61.8496-131.6864c-2.8672-7.9872-10.6496-12.9024-19.0464-12.288l-140.6976-21.9136 102.6048-102.4c4.7104-6.3488 7.3728-13.9264 7.168-21.9136l-23.7568-143.9744 126.1568 68.4032c6.3488 4.9152 14.9504 4.9152 21.2992 0l126.1568-68.4032-23.7568 143.9744c-1.4336 7.9872 1.2288 16.1792 7.168 21.9136l102.6048 102.4-140.9024 21.9136z" fill="#FDECE9" p-id="4388"></path><path d="M815.9232 449.536l-151.552-149.9136L701.6448 86.016c2.4576-11.0592-2.048-22.528-11.4688-28.8768-9.216-6.7584-21.2992-7.7824-31.5392-2.8672l-188.0064 100.9664-188.416-100.9664c-10.24-4.7104-22.3232-3.6864-31.5392 2.8672-9.4208 6.3488-13.9264 17.8176-11.4688 28.8768L276.48 299.4176l-154.4192 149.9136c-7.9872 7.3728-11.264 18.432-8.6016 28.8768 2.8672 10.6496 11.8784 18.6368 22.9376 20.2752L347.7504 530.432l94.208 193.1264c5.12 9.6256 14.7456 16.1792 25.8048 17.408 11.264 0 21.2992-6.9632 25.3952-17.408l94.208-193.1264 214.2208-31.744c11.0592-1.6384 20.0704-9.4208 22.9376-20.2752 3.4816-10.4448 0-22.1184-8.6016-28.8768z m-242.688 28.4672c-10.8544 0-20.6848 5.7344-26.4192 14.9504L470.4256 653.312l-76.3904-160.3584c-3.6864-9.6256-13.1072-15.5648-23.3472-14.9504l-173.8752-26.8288 126.5664-124.7232c5.9392-7.5776 9.0112-16.9984 8.8064-26.8288l-29.2864-175.3088 155.8528 83.1488c7.7824 5.9392 18.6368 5.9392 26.4192 0L641.024 124.3136l-29.2864 175.3088c-1.6384 9.8304 1.6384 19.8656 8.8064 26.8288l126.5664 124.7232-173.8752 26.8288zM303.9232 653.7216l-40.1408 118.1696L143.36 812.4416l120.4224 40.3456 40.1408 121.4464 39.936-121.4464 116.9408-40.3456-116.9408-40.5504zM593.1008 720.6912l-17.2032 54.6816-54.0672 20.2752 54.0672 17.2032 17.2032 54.8864 20.0704-54.8864 54.0672-17.2032-54.0672-20.2752z" fill="#EA5533" p-id="4389"></path></svg>